<svg id="visual" viewBox="0 0 960 540" width="960" height="540" xmlns="http://www.w3.org/2000/svg" xmlns:xlink="http://www.w3.org/1999/xlink" version="1.1"><rect x="0" y="0" width="960" height="540" fill="#FAEEE7"></rect><path d="M0 162L22.8 153.3C45.7 144.7 91.3 127.3 137 118.2C182.7 109 228.3 108 274 111.3C319.7 114.7 365.3 122.3 411.2 122.5C457 122.7 503 115.3 548.8 120.5C594.7 125.7 640.3 143.3 686 148.3C731.7 153.3 777.3 145.7 823 145.7C868.7 145.7 914.3 153.3 937.2 157.2L960 161L960 0L937.2 0C914.3 0 868.7 0 823 0C777.3 0 731.7 0 686 0C640.3 0 594.7 0 548.8 0C503 0 457 0 411.2 0C365.3 0 319.7 0 274 0C228.3 0 182.7 0 137 0C91.3 0 45.7 0 22.8 0L0 0Z" fill="#24a19c"></path><path d="M0 118L22.8 115.5C45.7 113 91.3 108 137 104.7C182.7 101.3 228.3 99.7 274 101C319.7 102.3 365.3 106.7 411.2 111.3C457 116 503 121 548.8 118C594.7 115 640.3 104 686 104.7C731.7 105.3 777.3 117.7 823 125C868.7 132.3 914.3 134.7 937.2 135.8L960 137L960 0L937.2 0C914.3 0 868.7 0 823 0C777.3 0 731.7 0 686 0C640.3 0 594.7 0 548.8 0C503 0 457 0 411.2 0C365.3 0 319.7 0 274 0C228.3 0 182.7 0 137 0C91.3 0 45.7 0 22.8 0L0 0Z" fill="#009dc4"></path><path d="M0 88L22.8 90.2C45.7 92.3 91.3 96.7 137 99.8C182.7 103 228.3 105 274 107.3C319.7 109.7 365.3 112.3 411.2 106.5C457 100.7 503 86.3 548.8 81C594.7 75.7 640.3 79.3 686 78.8C731.7 78.3 777.3 73.7 823 71.3C868.7 69 914.3 69 937.2 69L960 69L960 0L937.2 0C914.3 0 868.7 0 823 0C777.3 0 731.7 0 686 0C640.3 0 594.7 0 548.8 0C503 0 457 0 411.2 0C365.3 0 319.7 0 274 0C228.3 0 182.7 0 137 0C91.3 0 45.7 0 22.8 0L0 0Z" fill="#4d91da"></path><path d="M0 42L22.8 46.2C45.7 50.3 91.3 58.7 137 59.5C182.7 60.3 228.3 53.7 274 55.3C319.7 57 365.3 67 411.2 66.3C457 65.7 503 54.3 548.8 53.5C594.7 52.7 640.3 62.3 686 62.8C731.7 63.3 777.3 54.7 823 55C868.7 55.3 914.3 64.7 937.2 69.3L960 74L960 0L937.2 0C914.3 0 868.7 0 823 0C777.3 0 731.7 0 686 0C640.3 0 594.7 0 548.8 0C503 0 457 0 411.2 0C365.3 0 319.7 0 274 0C228.3 0 182.7 0 137 0C91.3 0 45.7 0 22.8 0L0 0Z" fill="#a57acc"></path><path d="M0 37L22.8 38.7C45.7 40.3 91.3 43.7 137 45.7C182.7 47.7 228.3 48.3 274 46.8C319.7 45.3 365.3 41.7 411.2 39.8C457 38 503 38 548.8 40C594.7 42 640.3 46 686 46C731.7 46 777.3 42 823 39.5C868.7 37 914.3 36 937.2 35.5L960 35L960 0L937.2 0C914.3 0 868.7 0 823 0C777.3 0 731.7 0 686 0C640.3 0 594.7 0 548.8 0C503 0 457 0 411.2 0C365.3 0 319.7 0 274 0C228.3 0 182.7 0 137 0C91.3 0 45.7 0 22.8 0L0 0Z" fill="#d96098"></path></svg>