<svg id="visual" viewBox="0 0 960 540" width="960" height="540" xmlns="http://www.w3.org/2000/svg" xmlns:xlink="http://www.w3.org/1999/xlink" version="1.1"><rect x="0" y="0" width="960" height="540" fill="#FAEEE7"></rect><path d="M0 379L22.8 382.7C45.7 386.3 91.3 393.7 137 399.5C182.7 405.3 228.3 409.7 274 403.5C319.7 397.3 365.3 380.7 411.2 377.2C457 373.7 503 383.3 548.8 393.2C594.7 403 640.3 413 686 416.2C731.7 419.3 777.3 415.7 823 411.8C868.7 408 914.3 404 937.2 402L960 400L960 541L937.2 541C914.3 541 868.7 541 823 541C777.3 541 731.7 541 686 541C640.3 541 594.7 541 548.8 541C503 541 457 541 411.2 541C365.3 541 319.7 541 274 541C228.3 541 182.7 541 137 541C91.3 541 45.7 541 22.8 541L0 541Z" fill="#24a19c"></path><path d="M0 424L22.8 419.3C45.7 414.7 91.3 405.3 137 405.5C182.7 405.7 228.3 415.3 274 415.8C319.7 416.3 365.3 407.7 411.2 405C457 402.3 503 405.7 548.8 413.8C594.7 422 640.3 435 686 436.3C731.7 437.7 777.3 427.3 823 419.5C868.7 411.7 914.3 406.3 937.2 403.7L960 401L960 541L937.2 541C914.3 541 868.7 541 823 541C777.3 541 731.7 541 686 541C640.3 541 594.7 541 548.8 541C503 541 457 541 411.2 541C365.3 541 319.7 541 274 541C228.3 541 182.7 541 137 541C91.3 541 45.7 541 22.8 541L0 541Z" fill="#009dc4"></path><path d="M0 442L22.8 439.7C45.7 437.3 91.3 432.7 137 433.7C182.7 434.7 228.3 441.3 274 446.2C319.7 451 365.3 454 411.2 450.7C457 447.3 503 437.7 548.8 436C594.7 434.3 640.3 440.7 686 448.2C731.7 455.7 777.3 464.3 823 462.3C868.7 460.3 914.3 447.7 937.2 441.3L960 435L960 541L937.2 541C914.3 541 868.7 541 823 541C777.3 541 731.7 541 686 541C640.3 541 594.7 541 548.8 541C503 541 457 541 411.2 541C365.3 541 319.7 541 274 541C228.3 541 182.7 541 137 541C91.3 541 45.7 541 22.8 541L0 541Z" fill="#4d91da"></path><path d="M0 498L22.8 491.5C45.7 485 91.3 472 137 468.2C182.7 464.3 228.3 469.7 274 473.8C319.7 478 365.3 481 411.2 482.3C457 483.7 503 483.3 548.8 478.8C594.7 474.3 640.3 465.7 686 465.3C731.7 465 777.3 473 823 473.5C868.7 474 914.3 467 937.2 463.5L960 460L960 541L937.2 541C914.3 541 868.7 541 823 541C777.3 541 731.7 541 686 541C640.3 541 594.7 541 548.8 541C503 541 457 541 411.2 541C365.3 541 319.7 541 274 541C228.3 541 182.7 541 137 541C91.3 541 45.7 541 22.8 541L0 541Z" fill="#a57acc"></path><path d="M0 515L22.8 513.3C45.7 511.7 91.3 508.3 137 505.2C182.7 502 228.3 499 274 501C319.7 503 365.3 510 411.2 510.2C457 510.3 503 503.7 548.8 498.3C594.7 493 640.3 489 686 491.2C731.7 493.3 777.3 501.7 823 502.2C868.7 502.7 914.3 495.3 937.2 491.7L960 488L960 541L937.2 541C914.3 541 868.7 541 823 541C777.3 541 731.7 541 686 541C640.3 541 594.7 541 548.8 541C503 541 457 541 411.2 541C365.3 541 319.7 541 274 541C228.3 541 182.7 541 137 541C91.3 541 45.7 541 22.8 541L0 541Z" fill="#d96098"></path></svg>